<svg width="24" height="24" viewBox="0 0 24 24" fill="none" xmlns="http://www.w3.org/2000/svg">
<g clip-path="url(#clip0_1348_4796)">
<path d="M6.08588 23.9151C5.15758 23.9047 4.23801 23.7344 3.36753 23.4118C2.73187 23.1768 2.15676 22.8027 1.68424 22.3169C1.19712 21.8454 0.822514 21.2701 0.588235 20.6339C0.265824 19.7634 0.0958076 18.8439 0.0856471 17.9158C0.0143529 16.3727 0 15.9099 0 12C0 8.09012 0.0157647 7.62894 0.0849412 6.08471C0.0963347 5.15689 0.26656 4.23788 0.588235 3.36753C0.823654 2.73176 1.19773 2.15642 1.68329 1.68329C2.15523 1.19662 2.73061 0.822358 3.36682 0.588235C4.2373 0.265557 5.15687 0.0953008 6.08518 0.0849412C7.62871 0.0143529 8.09224 0 12 0C15.9078 0 16.3711 0.0157647 17.9153 0.0849412C18.8433 0.0962542 19.7626 0.266481 20.6332 0.588235C21.2691 0.822667 21.8443 1.1968 22.3165 1.68306C22.8029 2.15535 23.1772 2.73073 23.4118 3.36682C23.7345 4.23729 23.9049 5.15686 23.9153 6.08518C23.9859 7.62941 24.0002 8.09176 24.0002 12.0005C24.0002 15.9092 23.9859 16.3715 23.9153 17.9158C23.9041 18.8439 23.7338 19.7633 23.4118 20.6339C23.1682 21.2652 22.7951 21.8386 22.3166 22.317C21.838 22.7954 21.2646 23.1683 20.6332 23.4118C19.7627 23.7345 18.8431 23.9049 17.9148 23.9153C16.372 23.9859 15.9082 24.0002 11.9995 24.0002C8.09082 24.0002 7.62847 23.9866 6.08565 23.9153" fill="url(#paint0_radial_1348_4796)"/>
<path d="M6.08588 23.9151C5.15758 23.9047 4.23801 23.7344 3.36753 23.4118C2.73187 23.1768 2.15676 22.8027 1.68424 22.3169C1.19712 21.8454 0.822514 21.2701 0.588235 20.6339C0.265824 19.7634 0.0958076 18.8439 0.0856471 17.9158C0.0143529 16.3727 0 15.9099 0 12C0 8.09012 0.0157647 7.62894 0.0849412 6.08471C0.0963347 5.15689 0.26656 4.23788 0.588235 3.36753C0.823654 2.73176 1.19773 2.15642 1.68329 1.68329C2.15523 1.19662 2.73061 0.822358 3.36682 0.588235C4.2373 0.265557 5.15687 0.0953008 6.08518 0.0849412C7.62871 0.0143529 8.09224 0 12 0C15.9078 0 16.3711 0.0157647 17.9153 0.0849412C18.8433 0.0962542 19.7626 0.266481 20.6332 0.588235C21.2691 0.822667 21.8443 1.1968 22.3165 1.68306C22.8029 2.15535 23.1772 2.73073 23.4118 3.36682C23.7345 4.23729 23.9049 5.15686 23.9153 6.08518C23.9859 7.62941 24.0002 8.09176 24.0002 12.0005C24.0002 15.9092 23.9859 16.3715 23.9153 17.9158C23.9041 18.8439 23.7338 19.7633 23.4118 20.6339C23.1682 21.2652 22.7951 21.8386 22.3166 22.317C21.838 22.7954 21.2646 23.1683 20.6332 23.4118C19.7627 23.7345 18.8431 23.9049 17.9148 23.9153C16.372 23.9859 15.9082 24.0002 11.9995 24.0002C8.09082 24.0002 7.62847 23.9866 6.08565 23.9153" fill="url(#paint1_radial_1348_4796)"/>
<path d="M9.05287 12.051C9.05292 11.4632 9.22727 10.8886 9.55389 10.3999C9.88051 9.91117 10.3447 9.53027 10.8878 9.30538C11.4309 9.08048 12.0285 9.02169 12.605 9.13643C13.1815 9.25117 13.711 9.53429 14.1266 9.94999C14.5422 10.3657 14.8252 10.8953 14.9398 11.4718C15.0544 12.0484 14.9955 12.6459 14.7705 13.189C14.5455 13.732 14.1645 14.1961 13.6757 14.5226C13.1869 14.8491 12.6122 15.0234 12.0244 15.0233C11.2362 15.0231 10.4804 14.7099 9.9231 14.1525C9.36583 13.5951 9.05281 12.8392 9.05287 12.051ZM7.44605 12.051C7.44605 12.9565 7.71456 13.8417 8.21764 14.5946C8.72071 15.3475 9.43575 15.9344 10.2723 16.2809C11.1089 16.6274 12.0295 16.7181 12.9176 16.5414C13.8057 16.3648 14.6215 15.9287 15.2618 15.2884C15.9021 14.6481 16.3381 13.8323 16.5148 12.9442C16.6914 12.0561 16.6008 11.1355 16.2542 10.299C15.9077 9.46238 15.3209 8.74734 14.568 8.24426C13.8151 7.74119 12.9299 7.47267 12.0244 7.47267C11.4232 7.47264 10.8278 7.59104 10.2723 7.82112C9.71682 8.05119 9.21209 8.38842 8.78694 8.81357C8.3618 9.23872 8.02456 9.74344 7.79449 10.2989C7.56442 10.8544 7.44601 11.4498 7.44605 12.051ZM15.714 7.29126C15.714 7.50286 15.7766 7.70974 15.8941 7.88574C16.0116 8.06173 16.1786 8.19893 16.3741 8.27999C16.5695 8.36106 16.7846 8.38234 16.9922 8.34115C17.1997 8.29996 17.3904 8.19814 17.5401 8.04858C17.6898 7.89902 17.7918 7.70844 17.8332 7.50092C17.8745 7.2934 17.8534 7.07827 17.7725 6.88274C17.6917 6.68721 17.5546 6.52006 17.3787 6.40242C17.2028 6.28479 16.996 6.22195 16.7844 6.22185C16.5008 6.22198 16.2288 6.33467 16.0282 6.53519C15.8276 6.7357 15.7148 7.00763 15.7145 7.29126M8.42275 19.3087C7.85737 19.3025 7.29727 19.199 6.76698 19.0028C6.38241 18.8546 6.03314 18.6275 5.74165 18.3361C5.45016 18.0447 5.2229 17.6955 5.07451 17.311C4.87822 16.7808 4.77475 16.2207 4.76863 15.6553C4.72534 14.7155 4.71687 14.4331 4.71687 12.0522C4.71687 9.67126 4.72628 9.38962 4.76863 8.44891C4.77549 7.88359 4.87894 7.3236 5.07451 6.79314C5.22273 6.40845 5.44992 6.05909 5.74143 5.76759C6.03293 5.47608 6.38229 5.24889 6.76698 5.10067C7.29724 4.90439 7.85736 4.80092 8.42275 4.79479C9.36252 4.7515 9.64487 4.74303 12.0249 4.74303C14.4049 4.74303 14.6875 4.75221 15.6282 4.79503C16.1935 4.80189 16.7535 4.90534 17.2839 5.10091C17.6686 5.24914 18.018 5.47633 18.3095 5.76784C18.601 6.05934 18.8282 6.4087 18.9764 6.79338C19.1727 7.32364 19.2761 7.88376 19.2823 8.44915C19.3256 9.39032 19.334 9.67126 19.334 12.0524C19.334 14.4336 19.3253 14.715 19.2823 15.6557C19.2757 16.2211 19.1722 16.7811 18.9764 17.3115C18.828 17.696 18.6008 18.0452 18.3093 18.3366C18.0178 18.6279 17.6685 18.855 17.2839 19.0033C16.7537 19.1995 16.1936 19.303 15.6282 19.3091C14.6884 19.3524 14.406 19.3609 12.0249 19.3609C9.64369 19.3609 9.36228 19.3522 8.42275 19.3091M8.34887 3.18938C7.60907 3.20393 6.8771 3.34395 6.18416 3.60349C5.59181 3.83252 5.05385 4.18281 4.60478 4.63188C4.15571 5.08095 3.80542 5.61891 3.57639 6.21126C3.31689 6.90421 3.17686 7.63617 3.16228 8.37597C3.11828 9.32656 3.1084 9.63055 3.1084 12.052C3.1084 14.4734 3.11852 14.7771 3.16228 15.728C3.17686 16.4678 3.31688 17.1997 3.57639 17.8927C3.80544 18.485 4.15572 19.023 4.60479 19.472C5.05387 19.9211 5.59182 20.2714 6.18416 20.5004C6.87713 20.7599 7.60908 20.8999 8.34887 20.9146C9.29993 20.9579 9.60346 20.9684 12.0249 20.9684C14.4463 20.9684 14.75 20.9583 15.7009 20.9146C16.4407 20.8999 17.1726 20.7599 17.8656 20.5004C18.4579 20.2714 18.9959 19.9211 19.4449 19.472C19.894 19.023 20.2443 18.485 20.4733 17.8927C20.7332 17.1998 20.8732 16.4678 20.8875 15.728C20.9308 14.7767 20.9406 14.4734 20.9406 12.052C20.9406 9.63055 20.9305 9.32679 20.8875 8.37597C20.8729 7.63617 20.7329 6.9042 20.4733 6.21126C20.2443 5.61902 19.8941 5.08115 19.4452 4.63209C18.9962 4.18303 18.4585 3.83268 17.8663 3.60349C17.1734 3.34378 16.4414 3.20375 15.7016 3.18938C14.7508 3.14585 14.447 3.1355 12.026 3.1355C9.6051 3.1355 9.30063 3.14562 8.34934 3.18938" fill="white"/>
</g>
<defs>
<radialGradient id="paint0_radial_1348_4796" cx="0" cy="0" r="1" gradientUnits="userSpaceOnUse" gradientTransform="translate(1.55318 23.4744) scale(30.4711)">
<stop offset="0.09" stop-color="#FA8F21"/>
<stop offset="0.78" stop-color="#D82D7E"/>
</radialGradient>
<radialGradient id="paint1_radial_1348_4796" cx="0" cy="0" r="1" gradientUnits="userSpaceOnUse" gradientTransform="translate(16.624 22.7035) scale(26.8148)">
<stop offset="0.64" stop-color="#8C3AAA" stop-opacity="0"/>
<stop offset="1" stop-color="#8C3AAA"/>
</radialGradient>
<clipPath id="clip0_1348_4796">
<rect width="24" height="24" fill="white"/>
</clipPath>
</defs>
</svg>
