<svg width="24" height="24" viewBox="0 0 24 24" fill="none" xmlns="http://www.w3.org/2000/svg">
<g clip-path="url(#clip0_1348_4803)">
<path d="M18.6131 0H5.38691C2.4118 0 0 2.4118 0 5.38691V18.6131C0 21.5882 2.4118 24 5.38691 24H18.6131C21.5882 24 24 21.5882 24 18.6131V5.38691C24 2.4118 21.5882 0 18.6131 0Z" fill="#0B86CA"/>
<path d="M6.65049 9.97579H9.14443V18.0229H6.65049V9.97579ZM7.9224 5.97717C8.20813 5.97718 8.48746 6.06181 8.72515 6.22038C8.96284 6.37896 9.14824 6.60438 9.25796 6.86821C9.36768 7.13203 9.39681 7.42245 9.34167 7.70281C9.28653 7.98317 9.14958 8.24092 8.94812 8.44354C8.74666 8.64616 8.4897 8.78458 8.20966 8.84133C7.92962 8.89807 7.63904 8.87061 7.37459 8.7624C7.11014 8.6542 6.88366 8.47009 6.72372 8.23332C6.56379 7.99654 6.47756 7.7177 6.47592 7.43197C6.47482 7.24132 6.51143 7.05233 6.58363 6.87587C6.65583 6.69941 6.7622 6.53897 6.89663 6.40377C7.03106 6.26857 7.19089 6.16128 7.36693 6.08807C7.54297 6.01486 7.73174 5.97717 7.9224 5.97717Z" fill="white"/>
<path d="M10.7412 9.9757H13.1437V11.073C13.3842 10.6626 13.7316 10.3252 14.1489 10.0968C14.5662 9.86839 15.0376 9.75758 15.513 9.77618C18.0069 9.77618 18.514 11.4388 18.514 13.6085V18.0228H16.0201V14.1323C16.0201 13.2012 16.0201 11.9958 14.7232 11.9958C13.4264 11.9958 13.2268 13.01 13.2268 14.0574V18.0394H10.7329L10.7412 9.9757Z" fill="white"/>
</g>
<defs>
<clipPath id="clip0_1348_4803">
<rect width="24" height="24" fill="white"/>
</clipPath>
</defs>
</svg>
